<svg id="Layer_1" data-name="Layer 1" xmlns="http://www.w3.org/2000/svg" width="571.86" height="69.09" viewBox="0 0 571.86 69.09"><defs><style>.cls-1,.cls-4{fill:none;stroke-miterlimit:10;stroke-width:2px;}.cls-1{stroke:#070001;}.cls-2{fill:#fff;}.cls-3{fill:#020f0f;}.cls-4{stroke:#fff;}</style></defs><title>vectorpaint</title><rect id="svg_1" data-name="svg 1" class="cls-1" x="397.2" y="1" width="173.66" height="67.09"/><path id="svg_2" data-name="svg 2" class="cls-2" d="M425,21.25h8.21A13.31,13.31,0,0,1,440.55,23a6.22,6.22,0,0,1,2.73,5.62,6.68,6.68,0,0,1-1.36,4.18,7.14,7.14,0,0,1-4,2.47v0.19a9.64,9.64,0,0,1,5.28,2.33,6.55,6.55,0,0,1,1.94,5,8.78,8.78,0,0,1-.81,3.88A7.52,7.52,0,0,1,442,49.47a10.28,10.28,0,0,1-3.56,1.66,18.12,18.12,0,0,1-4.67.56H425V21.25h0Zm7.4,13.4q4.72,0,6.75-1.5a5.29,5.29,0,0,0,2.06-4.56A4.62,4.62,0,0,0,439,24.31,12.46,12.46,0,0,0,432.65,23h-5.5V34.66h5.24ZM433.27,50a13,13,0,0,0,7.19-1.71,6,6,0,0,0,2.61-5.41A5.36,5.36,0,0,0,440.53,38a13.77,13.77,0,0,0-7.25-1.6h-6.15V50h6.14Z" transform="translate(-4.02 -2.62)"/><path id="svg_3" data-name="svg 3" class="cls-2" d="M450.94,24.16a1.83,1.83,0,0,1-1.32-.51,1.71,1.71,0,0,1-.53-1.3,1.75,1.75,0,0,1,.53-1.36,2,2,0,0,1,2.63,0,1.75,1.75,0,0,1,.53,1.36,1.71,1.71,0,0,1-.53,1.3A1.84,1.84,0,0,1,450.94,24.16Zm-1.06,5.36h2V51.71h-2V29.52Z" transform="translate(-4.02 -2.62)"/><path id="svg_4" data-name="svg 4" class="cls-2" d="M460.2,31.28h-3.47V29.71l3.51-.19,0.28-6.43h1.76v6.43h6.43v1.76h-6.43V45.75a10.34,10.34,0,0,0,.16,1.92,4,4,0,0,0,.58,1.48,2.76,2.76,0,0,0,1.13,1,4.31,4.31,0,0,0,1.87.35,5.39,5.39,0,0,0,1.41-.21,9.2,9.2,0,0,0,1.36-.49l0.56,1.66a15.54,15.54,0,0,1-1.94.6,7.43,7.43,0,0,1-1.66.23,6.46,6.46,0,0,1-2.68-.49,4.29,4.29,0,0,1-1.71-1.36,5.33,5.33,0,0,1-.9-2.13,13.56,13.56,0,0,1-.26-2.72V31.28Z" transform="translate(-4.02 -2.62)"/><path id="svg_5" data-name="svg 5" class="cls-2" d="M473.47,21.59h6.8v11.6h10.4V21.59h6.84V51.71h-6.84V39.14h-10.4V51.71h-6.8V21.59Z" transform="translate(-4.02 -2.62)"/><path id="svg_6" data-name="svg 6" class="cls-2" d="M501.9,28.78h6.8V42.14a6,6,0,0,0,.69,3.42,2.53,2.53,0,0,0,2.17.92,3.75,3.75,0,0,0,2.17-.6,8.8,8.8,0,0,0,1.9-1.94V28.78h6.79V51.71h-5.55l-0.51-3.19H516.2A12.42,12.42,0,0,1,513,51.27a7.81,7.81,0,0,1-4,1q-3.75,0-5.43-2.45A11.84,11.84,0,0,1,501.91,43V28.78h0Z" transform="translate(-4.02 -2.62)"/><path id="svg_7" data-name="svg 7" class="cls-2" d="M526.73,19.31h6.8v8l-0.19,3.51a10.71,10.71,0,0,1,2.86-1.92,7.92,7.92,0,0,1,3.17-.67A8.1,8.1,0,0,1,546,31.4a10.73,10.73,0,0,1,1.8,3.65,17.1,17.1,0,0,1,.62,4.78,15.91,15.91,0,0,1-.81,5.27A12.06,12.06,0,0,1,545.39,49a9.42,9.42,0,0,1-3.09,2.43,8.19,8.19,0,0,1-3.58.83,7.1,7.1,0,0,1-3.08-.74,9.33,9.33,0,0,1-2.89-2.22H532.6L532,51.72h-5.32V19.31Zm6.8,25.93a5.48,5.48,0,0,0,1.85,1.16,5.42,5.42,0,0,0,1.8.32,3.71,3.71,0,0,0,3-1.59q1.25-1.6,1.25-5.15,0-6.19-4-6.19a5.37,5.37,0,0,0-3.93,2.08v9.38h0Z" transform="translate(-4.02 -2.62)"/><path id="svg_63" data-name="svg 63" class="cls-3" d="M9.94,16.7L4,4H8.77l1.75,4.51q0.42,1.11.8,2.15l0.8,2.18h0.12q0.42-1.14.83-2.18l0.83-2.15L15.66,4H20.3L14.37,16.7v7H9.94v-7Z" transform="translate(-4.02 -2.62)"/><path id="svg_64" data-name="svg 64" class="cls-3" d="M29.8,24a9.08,9.08,0,0,1-3.62-.71,7.88,7.88,0,0,1-2.81-2,9.32,9.32,0,0,1-1.82-3.22,13.26,13.26,0,0,1-.65-4.3,13.11,13.11,0,0,1,.65-4.29,8.86,8.86,0,0,1,1.79-3.17,7.83,7.83,0,0,1,2.81-2,10.09,10.09,0,0,1,7.25,0,7.74,7.74,0,0,1,2.81,2A9,9,0,0,1,38,9.57a13,13,0,0,1,.65,4.26,13.27,13.27,0,0,1-.65,4.3,9.32,9.32,0,0,1-1.82,3.22,7.89,7.89,0,0,1-2.81,2A9.08,9.08,0,0,1,29.8,24Zm0-3.82A3.66,3.66,0,0,0,33,18.47a8.27,8.27,0,0,0,1.17-4.71A7.85,7.85,0,0,0,33,9.16a3.89,3.89,0,0,0-6.38,0,7.85,7.85,0,0,0-1.17,4.6,8.27,8.27,0,0,0,1.17,4.71,3.66,3.66,0,0,0,3.19,1.75h0Z" transform="translate(-4.02 -2.62)"/><path id="svg_65" data-name="svg 65" class="cls-3" d="M42.27,4h4.46V15a6.88,6.88,0,0,0,.87,4,3.39,3.39,0,0,0,5.07,0,6.7,6.7,0,0,0,.9-4V4h4.27V14.59q0,4.93-2,7.19A7.23,7.23,0,0,1,50.06,24a7.41,7.41,0,0,1-5.83-2.26q-2-2.26-2-7.19V4h0.06Z" transform="translate(-4.02 -2.62)"/><path id="svg_66" data-name="svg 66" class="cls-3" d="M73,23.67L69.25,16.6H66.82v7.06H62.4V4h7.06a13.66,13.66,0,0,1,2.94.3,6.67,6.67,0,0,1,2.39,1A5,5,0,0,1,76.41,7.2,6.34,6.34,0,0,1,77,10.12a6.22,6.22,0,0,1-.95,3.56,5.77,5.77,0,0,1-2.54,2.09L78,23.62H73v0.05ZM66.82,13.09h2.29a4.17,4.17,0,0,0,2.64-.75,2.63,2.63,0,0,0,.92-2.18,2.18,2.18,0,0,0-.92-2,5,5,0,0,0-2.66-.57H66.82v5.52Z" transform="translate(-4.02 -2.62)"/><path id="svg_67" data-name="svg 67" class="cls-3" d="M87.18,4h6.71a16.73,16.73,0,0,1,2.84.22A6.78,6.78,0,0,1,99,5a4.25,4.25,0,0,1,1.53,1.5,4.52,4.52,0,0,1,.55,2.35,4.66,4.66,0,0,1-.19,1.32,4.38,4.38,0,0,1-.59,1.23,4.13,4.13,0,0,1-1,1,4.29,4.29,0,0,1-1.47.67V13.3A5.71,5.71,0,0,1,101,14.8a4.3,4.3,0,0,1,1.07,3.1,5.36,5.36,0,0,1-.59,2.58,5,5,0,0,1-1.62,1.79,7.48,7.48,0,0,1-2.42,1,12.27,12.27,0,0,1-3,.34H87.18V4Zm6.5,7.91A3.53,3.53,0,0,0,96,11.28a2.22,2.22,0,0,0,.74-1.76A1.75,1.75,0,0,0,96,7.93a4.38,4.38,0,0,0-2.32-.48H91.6v4.48h2.08ZM94.1,20.2q3.64,0,3.64-2.67a2.08,2.08,0,0,0-.9-1.88,5,5,0,0,0-2.75-.53H91.6v5.14h2.49V20.2Z" transform="translate(-4.02 -2.62)"/><path id="svg_68" data-name="svg 68" class="cls-3" d="M116,23.67l-3.76-7.06H109.8v7.06h-4.42V4h7.06a13.66,13.66,0,0,1,2.94.3,6.67,6.67,0,0,1,2.39,1,5,5,0,0,1,1.62,1.88,6.34,6.34,0,0,1,.61,2.92,6.22,6.22,0,0,1-.95,3.56,5.77,5.77,0,0,1-2.54,2.09L121,23.62h-5v0.05ZM109.8,13.09h2.3a4.17,4.17,0,0,0,2.66-.74,2.63,2.63,0,0,0,.92-2.18,2.18,2.18,0,0,0-.92-2,5,5,0,0,0-2.66-.57h-2.29v5.51h0Z" transform="translate(-4.02 -2.62)"/><path id="svg_69" data-name="svg 69" class="cls-3" d="M132.8,19h-6l-1.2,4.66h-4.51L127.23,4h5.33l6.13,19.61H134Zm-0.9-3.46-0.45-1.81q-0.42-1.47-.81-3.13t-0.79-3.19h-0.12L129,10.62q-0.37,1.64-.8,3.12l-0.48,1.81h4.19Z" transform="translate(-4.02 -2.62)"/><path id="svg_70" data-name="svg 70" class="cls-3" d="M140.84,4h4.55l5.11,9.74,1.95,4.38h0.12q-0.15-1.56-.34-3.49A36.32,36.32,0,0,1,152,11V4h4.21V23.67H151.7l-5.11-9.77-1.93-4.27h-0.12q0.15,1.62.34,3.49a34.69,34.69,0,0,1,.19,3.61v7h-4.21V4h0Z" transform="translate(-4.02 -2.62)"/><path id="svg_71" data-name="svg 71" class="cls-3" d="M160.83,4h5.54a13.43,13.43,0,0,1,4,.57,8.14,8.14,0,0,1,3.1,1.76,7.73,7.73,0,0,1,2,3,12.37,12.37,0,0,1,.7,4.36,12.62,12.62,0,0,1-.7,4.39,7.79,7.79,0,0,1-5,4.9,12.1,12.1,0,0,1-3.92.61h-5.77V4h0Zm5.27,16a7.38,7.38,0,0,0,2.29-.33,4.22,4.22,0,0,0,1.75-1.07,5,5,0,0,0,1.13-1.94,9.41,9.41,0,0,0,.4-3,9.16,9.16,0,0,0-.4-2.94,4.75,4.75,0,0,0-1.13-1.9,4.11,4.11,0,0,0-1.75-1,8.07,8.07,0,0,0-2.29-.3h-0.84V20.09h0.84V20Z" transform="translate(-4.02 -2.62)"/><path id="svg_72" data-name="svg 72" class="cls-3" d="M186.19,4h4.42v7.55h6.77V4h4.45V23.67h-4.45V15.48h-6.77v8.18h-4.42V4Z" transform="translate(-4.02 -2.62)"/><path id="svg_73" data-name="svg 73" class="cls-3" d="M215.65,19h-6l-1.2,4.66H204L210.1,4h5.33l6.13,19.61h-4.69Zm-0.9-3.46-0.45-1.81q-0.42-1.47-.81-3.13t-0.79-3.19h-0.12l-0.74,3.2q-0.37,1.64-.8,3.12l-0.48,1.81h4.19Z" transform="translate(-4.02 -2.62)"/><path id="svg_74" data-name="svg 74" class="cls-3" d="M225,18.14a9.52,9.52,0,0,0,2.33,1.47,6.11,6.11,0,0,0,2.51.57,3.41,3.41,0,0,0,2-.51,1.64,1.64,0,0,0,.68-1.38,1.51,1.51,0,0,0-.19-0.78,1.87,1.87,0,0,0-.57-0.59,5.41,5.41,0,0,0-.9-0.48l-1.16-.49-2.55-1.08a7.6,7.6,0,0,1-1.46-.79A6.41,6.41,0,0,1,224.39,13a5,5,0,0,1-.89-1.5,5.35,5.35,0,0,1-.33-1.94,5.2,5.2,0,0,1,.51-2.27,5.64,5.64,0,0,1,1.44-1.87,6.89,6.89,0,0,1,2.21-1.25,8.41,8.41,0,0,1,2.81-.45,9.08,9.08,0,0,1,3.38.67,8.57,8.57,0,0,1,2.94,1.93l-2.22,2.79a8.59,8.59,0,0,0-1.93-1.16,5.45,5.45,0,0,0-2.14-.4,3.16,3.16,0,0,0-1.82.46,1.5,1.5,0,0,0-.68,1.31,1.29,1.29,0,0,0,.22.77,2.19,2.19,0,0,0,.64.57,6.41,6.41,0,0,0,.95.48l1.17,0.49,2.52,1a6.9,6.9,0,0,1,2.84,2A5.09,5.09,0,0,1,237,18a5.56,5.56,0,0,1-1.88,4.22,7.18,7.18,0,0,1-2.33,1.32,9.22,9.22,0,0,1-3.13.49,11,11,0,0,1-3.83-.71,10,10,0,0,1-3.41-2.12Z" transform="translate(-4.02 -2.62)"/><path id="svg_75" data-name="svg 75" class="cls-3" d="M255.87,19h-6l-1.2,4.66h-4.51L250.29,4h5.33l6.13,19.61h-4.69ZM255,15.55l-0.45-1.81q-0.42-1.47-.81-3.13t-0.79-3.19h-0.12l-0.74,3.2q-0.37,1.64-.8,3.12l-0.48,1.81H255Z" transform="translate(-4.02 -2.62)"/><path id="svg_76" data-name="svg 76" class="cls-3" d="M271.42,18.14a9.52,9.52,0,0,0,2.33,1.47,6.11,6.11,0,0,0,2.51.57,3.41,3.41,0,0,0,2-.51,1.64,1.64,0,0,0,.68-1.38,1.51,1.51,0,0,0-.19-0.78,1.87,1.87,0,0,0-.57-0.59,5.41,5.41,0,0,0-.9-0.48l-1.16-.49-2.55-1.08a7.6,7.6,0,0,1-1.46-.79A6.41,6.41,0,0,1,270.85,13a5,5,0,0,1-.89-1.5,5.35,5.35,0,0,1-.33-1.94,5.19,5.19,0,0,1,.51-2.27,5.64,5.64,0,0,1,1.44-1.87,6.89,6.89,0,0,1,2.21-1.25,8.41,8.41,0,0,1,2.81-.45,9.08,9.08,0,0,1,3.38.67,8.57,8.57,0,0,1,2.94,1.93l-2.22,2.79a8.59,8.59,0,0,0-1.93-1.16,5.45,5.45,0,0,0-2.14-.4,3.16,3.16,0,0,0-1.82.46,1.5,1.5,0,0,0-.68,1.31,1.29,1.29,0,0,0,.22.77,2.19,2.19,0,0,0,.64.57,6.41,6.41,0,0,0,.95.48l1.17,0.49,2.52,1a6.9,6.9,0,0,1,2.84,2,5.09,5.09,0,0,1,1,3.34,5.56,5.56,0,0,1-1.94,4.22,7.18,7.18,0,0,1-2.33,1.32,9.22,9.22,0,0,1-3.13.49,11,11,0,0,1-3.83-.71,10,10,0,0,1-3.41-2.12Z" transform="translate(-4.02 -2.62)"/><path id="svg_77" data-name="svg 77" class="cls-3" d="M290.09,7.79H284.7V4h15.22V7.75h-5.39V23.67h-4.45V7.79Z" transform="translate(-4.02 -2.62)"/><path id="svg_78" data-name="svg 78" class="cls-3" d="M310.12,24a9.08,9.08,0,0,1-3.62-.71,7.88,7.88,0,0,1-2.81-2,9.32,9.32,0,0,1-1.82-3.22,13.27,13.27,0,0,1-.65-4.3,13.11,13.11,0,0,1,.65-4.29,8.86,8.86,0,0,1,1.82-3.16,7.83,7.83,0,0,1,2.81-2,10.09,10.09,0,0,1,7.25,0,7.74,7.74,0,0,1,2.81,2,9,9,0,0,1,1.82,3.18,13,13,0,0,1,.65,4.26,13.27,13.27,0,0,1-.65,4.3,9.32,9.32,0,0,1-1.82,3.22,7.89,7.89,0,0,1-2.81,2A9.08,9.08,0,0,1,310.12,24Zm0-3.82a3.66,3.66,0,0,0,3.19-1.74,8.27,8.27,0,0,0,1.17-4.71,7.85,7.85,0,0,0-1.17-4.6,3.89,3.89,0,0,0-6.38,0,7.85,7.85,0,0,0-1.16,4.61,8.27,8.27,0,0,0,1.17,4.71,3.66,3.66,0,0,0,3.18,1.74h0Z" transform="translate(-4.02 -2.62)"/><path id="svg_79" data-name="svg 79" class="cls-3" d="M333.34,23.67l-3.76-7.06h-2.43v7.06h-4.43V4h7.06a13.66,13.66,0,0,1,2.94.3,6.67,6.67,0,0,1,2.39,1,5,5,0,0,1,1.62,1.88,6.35,6.35,0,0,1,.61,2.92,6.22,6.22,0,0,1-.95,3.56,5.77,5.77,0,0,1-2.54,2.09l4.45,7.85h-5v0.05Zm-6.19-10.57h2.29a4.17,4.17,0,0,0,2.66-.74,2.63,2.63,0,0,0,.91-2.19,2.18,2.18,0,0,0-.92-2,5,5,0,0,0-2.66-.57h-2.29v5.52h0Z" transform="translate(-4.02 -2.62)"/><path id="svg_80" data-name="svg 80" class="cls-3" d="M344.11,16.7L338.16,4h4.75l1.75,4.51q0.42,1.11.8,2.15l0.8,2.18h0.12q0.42-1.14.83-2.18L348,8.52,349.8,4h4.63L348.5,16.64v7h-4.4V16.7Z" transform="translate(-4.02 -2.62)"/><path id="svg_81" data-name="svg 81" class="cls-2" d="M4.66,35h9.28V62.3H27.21v7.77H4.66V35Z" transform="translate(-4.02 -2.62)"/><path id="svg_82" data-name="svg 82" class="cls-2" d="M33.26,35H55.92v7.77H42.5v5.51H54V56H42.5V62.3H56.42v7.77H33.22V35h0Z" transform="translate(-4.02 -2.62)"/><path id="svg_83" data-name="svg 83" class="cls-2" d="M70,42.76h-9.3V35H88.49v7.77H79.21V70.07H69.93V42.76h0Z" transform="translate(-4.02 -2.62)"/><path id="svg_84" data-name="svg 84" class="cls-2" d="M104.82,35h9.3V54.16q0,4.69,1.27,6.61a4.47,4.47,0,0,0,4,1.92,4.61,4.61,0,0,0,4-1.92q1.32-1.92,1.32-6.61V35h9V53.15q0,9-3.51,13.31t-10.84,4.29q-7.39,0-11-4.29t-3.59-13.31V35h0Z" transform="translate(-4.02 -2.62)"/><path id="svg_85" data-name="svg 85" class="cls-2" d="M143.88,59.33a17.76,17.76,0,0,0,4,2.45,10.41,10.41,0,0,0,4.13.95,5.54,5.54,0,0,0,3-.65,2.1,2.1,0,0,0,.95-1.84,1.76,1.76,0,0,0-.32-1.08,3.35,3.35,0,0,0-.95-0.81,10.61,10.61,0,0,0-1.48-.73l-2-.79L146.88,55a12.93,12.93,0,0,1-2.69-1.43,10.5,10.5,0,0,1-2.27-2.11,9.69,9.69,0,0,1-1.53-2.78,10.09,10.09,0,0,1-.56-3.45,9.45,9.45,0,0,1,1-4.24,10.84,10.84,0,0,1,2.69-3.45,13,13,0,0,1,4.13-2.35,15.45,15.45,0,0,1,5.27-.87A17.76,17.76,0,0,1,159,35.47,15.06,15.06,0,0,1,164.55,39l-4.64,5.83A16.88,16.88,0,0,0,156.48,43a9.71,9.71,0,0,0-3.59-.65,5.18,5.18,0,0,0-2.69.6,2,2,0,0,0-1,1.79,2.09,2.09,0,0,0,1.37,1.92q1.37,0.68,3.8,1.59l4.27,1.67a11.53,11.53,0,0,1,5,3.61,9.56,9.56,0,0,1,1.89,6A10.4,10.4,0,0,1,162,67.34a13.29,13.29,0,0,1-4.29,2.45,17.15,17.15,0,0,1-5.83.92A21.11,21.11,0,0,1,145,69.5a18.31,18.31,0,0,1-6.4-3.8Z" transform="translate(-4.02 -2.62)"/><path id="svg_86" data-name="svg 86" class="cls-2" d="M189.21,42.76h-9.28V35h27.84v7.77h-9.28V70.07h-9.28V42.76h0Z" transform="translate(-4.02 -2.62)"/><path id="svg_87" data-name="svg 87" class="cls-2" d="M213,35h22.67v7.77H222.23v5.51h11.44V56H222.23V62.3h13.94v7.77H213V35Z" transform="translate(-4.02 -2.62)"/><path id="svg_88" data-name="svg 88" class="cls-2" d="M243,35h9.28V62.3h13.27v7.77H243V35Z" transform="translate(-4.02 -2.62)"/><path id="svg_89" data-name="svg 89" class="cls-2" d="M271.55,35h9.28V62.3H294.1v7.77H271.55V35Z" transform="translate(-4.02 -2.62)"/><path id="svg_90" data-name="svg 90" class="cls-2" d="M311.48,35h9.28V70.07h-9.28V35Z" transform="translate(-4.02 -2.62)"/><path id="svg_91" data-name="svg 91" class="cls-2" d="M335.23,42.76h-9.28V35h27.84v7.77h-9.28V70.07h-9.28V42.76h0Z" transform="translate(-4.02 -2.62)"/><line id="svg_92" data-name="svg 92" class="cls-4" x1="372.92" y1="0.04" x2="372.92" y2="68.94"/></svg>